<svg width="32" height="32" viewBox="0 0 32 32" fill="none" xmlns="http://www.w3.org/2000/svg">
<g id="Weight Scale" clip-path="url(#clip0_649_212)">
<path id="Vector" fill-rule="evenodd" clip-rule="evenodd" d="M23.784 7.41869C23.5847 3.28489 20.1743 0 15.9962 0C11.8255 0 8.4151 3.28489 8.21579 7.41869H3.87531C1.88223 7.41869 0.0810781 9.05744 0.21395 11.1022L1.32122 28.3608C1.45409 30.3391 2.95997 32 4.98258 32H27.0172C29.0398 32 30.5457 30.3391 30.6785 28.3608L31.7858 11.1022C31.9187 9.05744 30.1175 7.41869 28.1244 7.41869H23.784ZM5.8241 23.3338C1.90438 16.454 10.2827 16.1366 9.36735 19.8717C8.40034 24.1975 11.7 27.4528 9.7512 28.9513C8.96874 29.5493 7.71383 29.4164 6.89446 28.3755C6.28177 27.6005 6.73206 24.9209 5.8241 23.3338ZM10.0908 20.0489C10.4008 18.7792 9.95051 17.8491 9.16066 17.3029C6.76897 15.6272 1.7715 17.7384 5.1745 23.7029C6.00126 25.1423 5.46977 27.7776 6.30392 28.8332C7.39642 30.2284 9.12375 30.3686 10.2015 29.5493C12.7777 27.5709 9.13113 24.1827 10.0908 20.0489ZM22.6398 19.8865C21.7909 16.0997 30.0363 16.5647 26.1757 23.3338C25.2677 24.9209 25.718 27.6005 25.1053 28.3755C24.2859 29.4164 23.031 29.5493 22.2486 28.9513C20.3071 27.4602 23.6142 24.0351 22.6398 19.8865ZM27.5191 18.2699C25.969 15.701 21.1191 16.4687 21.909 20.0489C22.374 21.7836 21.7909 23.7767 21.3849 25.1349C20.8386 26.9804 20.3883 28.4715 21.7983 29.5493C22.876 30.3686 24.6033 30.2284 25.6958 28.8332C26.5226 27.7776 25.9985 25.1423 26.8253 23.7029C28.2499 21.2078 28.2056 19.4141 27.5191 18.2699ZM17.0149 6.77647C16.7565 6.51811 16.3948 6.35571 15.9962 6.35571C15.7304 6.35571 15.4868 6.42215 15.2802 6.54025L13.4716 4.73172C13.1247 4.38478 12.5932 4.91626 12.9401 5.26321L14.756 7.07912C14.4608 7.60323 14.4829 8.3045 14.9849 8.80646C15.5459 9.36747 16.4539 9.36747 17.0149 8.80646C17.5759 8.24544 17.5759 7.33749 17.0149 6.77647ZM15.5164 8.27497C14.8742 7.66967 15.8264 6.65098 16.4834 7.30796C16.7565 7.5737 16.7491 8.00923 16.4834 8.27497C16.2176 8.5481 15.7821 8.54072 15.5164 8.27497ZM16.3727 0.752941C17.3323 0.797232 18.2919 1.03345 19.1999 1.50588L18.661 2.43599C18.41 2.86413 19.0596 3.23322 19.3106 2.81246L19.8421 1.88235C20.2407 2.14072 20.6172 2.45075 20.9789 2.81246C21.3332 3.16678 21.6432 3.55063 21.9016 3.94925L20.9863 4.48074C20.5581 4.73172 20.9272 5.37393 21.3554 5.13033L22.2781 4.59885C22.7284 5.48466 22.9793 6.44429 23.031 7.41869H21.968C21.4735 7.41869 21.4735 8.16424 21.968 8.16424H23.031C22.9793 9.13864 22.7284 10.0983 22.2781 10.9841L21.3554 10.4526C20.9272 10.209 20.5581 10.8512 20.9863 11.1022L21.9016 11.6337C21.6432 12.0323 21.3332 12.4161 20.9789 12.7705C17.598 16.1513 12.3644 15.1105 10.0834 11.6411L11.0135 11.1022C11.4416 10.8512 11.0725 10.209 10.6444 10.4526L9.70691 10.9915C9.28615 10.1573 9.02041 9.20508 8.96874 8.16424H10.0317C10.5263 8.16424 10.5263 7.41869 10.0317 7.41869H8.96874C9.02041 6.37785 9.28615 5.42561 9.70691 4.59146L10.6444 5.13033C11.0725 5.37393 11.4416 4.73172 11.0135 4.48074L10.0834 3.94187C10.6296 3.11511 11.3457 2.42122 12.165 1.89712L12.6892 2.81246C12.9401 3.23322 13.5823 2.86413 13.3387 2.43599L12.8146 1.52803C13.6857 1.08512 14.6453 0.819377 15.6271 0.760323V1.8233C15.6271 2.31788 16.3727 2.31788 16.3727 1.8233V0.752941ZM16.3727 15.5755C20.381 15.3836 23.592 12.1725 23.784 8.16424H28.1244C29.7041 8.16424 31.1436 9.45606 31.0402 11.0579L29.9256 28.3165C29.8296 29.8962 28.6412 31.2471 27.0172 31.2471H16.3727V15.5755ZM8.21579 8.16424C8.40772 12.1725 11.6188 15.3836 15.6271 15.5755V31.2471H4.98258C3.35859 31.2471 2.17012 29.8962 2.06678 28.3165L0.959509 11.0579C0.856165 9.45606 2.29561 8.16424 3.87531 8.16424H8.21579Z" fill="#E11B22"/>
<path id="Vector_2" fill-rule="evenodd" clip-rule="evenodd" d="M23.784 8.16406C23.5921 12.1724 20.381 15.3834 16.3727 15.5754V31.2469H27.0173C28.6413 31.2469 29.8297 29.896 29.9257 28.3163L31.0403 11.0577C31.1437 9.45587 29.7042 8.16406 28.1245 8.16406H23.784ZM21.385 25.1348C21.791 23.7765 22.3741 21.7834 21.9091 20.0487C21.1192 16.4686 25.969 15.7009 27.5192 18.2697C28.2057 19.4139 28.25 21.2077 26.8253 23.7027C25.9986 25.1421 26.5227 27.7774 25.6959 28.833C24.6034 30.2282 22.8761 30.3684 21.7983 29.5491C20.3884 28.4713 20.8387 26.9802 21.385 25.1348ZM15.6272 31.2469V15.5754C11.6189 15.3834 8.4078 12.1724 8.21588 8.16406H3.87539C2.29569 8.16406 0.856247 9.45587 0.959592 11.0577L2.06686 28.3163C2.1702 29.896 3.35867 31.2469 4.98266 31.2469H15.6272ZM10.0908 20.0487C9.13122 24.1825 12.7778 27.5708 10.2016 29.5491C9.12384 30.3684 7.3965 30.2282 6.304 28.833C5.46986 27.7774 6.00134 25.1421 5.17459 23.7027C1.77159 17.7382 6.76905 15.627 9.16074 17.3027C9.95059 17.849 10.4009 18.7791 10.0908 20.0487Z" fill="white"/>
<path id="Vector_3" fill-rule="evenodd" clip-rule="evenodd" d="M22.6398 19.8861C23.6142 24.0347 20.3072 27.4598 22.2486 28.9509C23.031 29.5489 24.2859 29.416 25.1053 28.3752C25.718 27.6001 25.2677 24.9205 26.1757 23.3334C30.0363 16.5643 21.7909 16.0993 22.6398 19.8861Z" fill="white"/>
<path id="Vector_4" fill-rule="evenodd" clip-rule="evenodd" d="M10.0834 11.642C12.3644 15.1115 17.598 16.1523 20.9789 12.7714C21.3332 12.4171 21.6433 12.0333 21.9016 11.6346L20.9863 11.1032C20.5581 10.8522 20.9272 10.21 21.3554 10.4536L22.2781 10.985C22.7284 10.0992 22.9794 9.1396 23.031 8.16521H21.9681C21.4735 8.16521 21.4735 7.41965 21.9681 7.41965H23.031C22.9794 6.44526 22.7284 5.48562 22.2781 4.59981L21.3554 5.1313C20.9272 5.3749 20.5581 4.73268 20.9863 4.4817L21.9016 3.95022C21.6433 3.5516 21.3332 3.16775 20.9789 2.81342C20.6172 2.45171 20.2407 2.14168 19.8421 1.88332L19.3106 2.81342C19.0596 3.23418 18.41 2.86509 18.661 2.43695L19.1999 1.50685C18.2919 1.03441 17.3323 0.798197 16.3727 0.753906V1.82426C16.3727 2.31884 15.6271 2.31884 15.6271 1.82426V0.761288C14.6453 0.820342 13.6857 1.08609 12.8147 1.52899L13.3388 2.43695C13.5824 2.86509 12.9401 3.23418 12.6892 2.81342L12.1651 1.89808C11.3457 2.42219 10.6296 3.11607 10.0834 3.94283L11.0135 4.4817C11.4416 4.73268 11.0726 5.3749 10.6444 5.1313L9.70693 4.59243C9.28617 5.42657 9.02042 6.37882 8.96875 7.41965H10.0317C10.5263 7.41965 10.5263 8.16521 10.0317 8.16521H8.96875C9.02042 9.20604 9.28617 10.1583 9.70693 10.9924L10.6444 10.4536C11.0726 10.21 11.4416 10.8522 11.0135 11.1032L10.0834 11.642ZM17.0149 8.80742C16.4539 9.36844 15.5459 9.36844 14.9849 8.80742C14.4829 8.30546 14.4608 7.60419 14.7561 7.08009L12.9401 5.26417C12.5932 4.91723 13.1247 4.38574 13.4716 4.73268L15.2802 6.54122C15.4869 6.42311 15.7305 6.35667 15.9962 6.35667C16.3948 6.35667 16.7565 6.51907 17.0149 6.77744C17.5759 7.33845 17.5759 8.24641 17.0149 8.80742Z" fill="white"/>
<path id="Vector_5" fill-rule="evenodd" clip-rule="evenodd" d="M9.36746 19.8717C10.2828 16.1365 1.90448 16.454 5.82421 23.3338C6.73216 24.9209 6.28188 27.6004 6.89456 28.3755C7.71394 29.4164 8.96884 29.5492 9.75131 28.9513C11.7001 27.4528 8.40044 24.1974 9.36746 19.8717Z" fill="white"/>
<path id="Vector_6" fill-rule="evenodd" clip-rule="evenodd" d="M15.5166 8.27553C15.7823 8.54127 16.2179 8.54865 16.4836 8.27553C16.7494 8.00978 16.7567 7.57426 16.4836 7.30851C15.8266 6.65154 14.8744 7.67022 15.5166 8.27553Z" fill="white"/>
</g>
<defs>
<clipPath id="clip0_649_212">
<rect width="32" height="32" fill="white"/>
</clipPath>
</defs>
</svg>
