<svg width="40" height="40" viewBox="0 0 40 40" fill="none" xmlns="http://www.w3.org/2000/svg">
<g id="Healthy Life">
<path id="Vector" d="M15.7025 2.99563C15.7025 4.2632 16.2819 5.46102 17.2759 6.24758L19.6177 8.10141C19.7431 8.20062 19.9199 8.20133 20.0463 8.10352L22.3194 6.34375C23.4122 5.49766 24.0519 4.19336 24.0519 2.81117H24.053C24.0335 1.58695 23.0354 0.601562 21.8067 0.601562C21.1132 0.601562 20.494 0.915469 20.0817 1.40844C19.9766 1.53414 19.7796 1.53414 19.6746 1.40844C19.2622 0.915391 18.6422 0.601562 17.9485 0.601562C16.7202 0.601562 15.7218 1.58695 15.7024 2.81117H15.7026L15.7025 2.99563ZM4.96932 19.1402C4.96932 18.7282 4.9876 18.3102 5.0233 17.8975L3.94939 17.8038C3.9108 18.2474 3.89111 18.6971 3.89111 19.1402C3.89111 19.8091 3.9358 20.4846 4.02354 21.1482L5.09213 21.0067C5.01072 20.3899 4.96932 19.762 4.96932 19.1402ZM5.34002 22.3677L4.28994 22.6123C4.5426 23.6976 4.91463 24.7591 5.3965 25.768L6.36939 25.3033C5.92119 24.3649 5.57478 23.3773 5.34002 22.3677ZM6.10096 13.5439L5.10807 13.1246C4.67549 14.1486 4.35307 15.2268 4.14947 16.3291L5.20978 16.5246C5.39932 15.4991 5.699 14.4962 6.10096 13.5439ZM9.19393 30.7755C10.0362 31.5114 10.9591 32.1558 11.9371 32.6903L12.4541 31.7441C11.5448 31.2472 10.6867 30.6483 9.90369 29.9637L9.19393 30.7755ZM6.10096 27.0788C6.67604 28.0353 7.35572 28.9318 8.12119 29.7428L8.90533 29.003C8.19291 28.248 7.56041 27.4137 7.02518 26.5232L6.10096 27.0788ZM9.42643 10.1859L9.39213 8.50125C9.38924 8.35445 9.3265 8.21516 9.2183 8.11562C9.11025 8.01617 8.96564 7.96469 8.82002 7.97414L7.10525 8.08047C6.88877 8.09391 6.70135 8.23578 6.62963 8.4407C6.55807 8.64547 6.61635 8.87328 6.77752 9.01867L7.28744 9.47859C7.28713 9.47891 7.28713 9.47891 7.28697 9.47906L7.28682 9.47859C7.14994 9.64812 7.01814 9.82195 6.88869 9.99773C6.86549 10.0293 6.84307 10.0612 6.81986 10.0931C6.75916 10.1769 6.69736 10.2599 6.6383 10.3449L6.64166 10.348C6.32018 10.8106 6.0208 11.288 5.75299 11.782L6.70088 12.2957C6.97463 11.7906 7.28361 11.3036 7.61822 10.8344C7.65635 10.7811 7.69346 10.727 7.73205 10.6741C7.84861 10.5155 7.96783 10.3581 8.0908 10.2038L8.52658 10.5969C8.6276 10.6881 8.75682 10.7357 8.88775 10.7357C8.96346 10.7357 9.04002 10.7197 9.11158 10.6869C9.30713 10.5979 9.43088 10.4007 9.42643 10.1859ZM27.5461 31.7441L28.0631 32.6903C29.0409 32.1558 29.9638 31.5114 30.8061 30.7755L30.0964 29.9637C29.3132 30.6482 28.4551 31.2471 27.5461 31.7441ZM34.7905 16.5245L35.8506 16.3287C35.6468 15.2259 35.3242 14.1477 34.8918 13.1244L33.8986 13.544C34.3009 14.4955 34.601 15.4984 34.7905 16.5245ZM36.0504 17.8038L34.9765 17.8975C35.0124 18.3098 35.0306 18.7279 35.0306 19.1398C35.0306 19.7616 34.9895 20.3897 34.908 21.0065L35.9767 21.148C36.0645 20.4845 36.1088 19.8088 36.1088 19.1399C36.1088 18.6966 36.0893 18.2471 36.0504 17.8038ZM33.6309 25.3032L34.6038 25.768C35.0853 24.7591 35.4577 23.6975 35.7103 22.6123L34.6603 22.3677C34.4251 23.3773 34.0787 24.3649 33.6309 25.3032ZM31.0946 29.003L31.8787 29.7428C32.6444 28.9318 33.3238 28.0354 33.8991 27.0788L32.975 26.5232C32.4396 27.4137 31.807 28.248 31.0946 29.003ZM31.4735 10.5971L31.9087 10.2042C31.9234 10.2225 31.9367 10.2415 31.9513 10.2598C32.0569 10.3933 32.1602 10.5286 32.2612 10.6656C32.311 10.7337 32.3587 10.803 32.4072 10.8718C32.7317 11.3298 33.0322 11.8041 33.2989 12.2959L34.2468 11.7822C33.9787 11.288 33.6792 10.8099 33.3571 10.347L33.3603 10.3442C33.306 10.2659 33.2488 10.1896 33.193 10.1123C33.1634 10.0712 33.1342 10.0297 33.104 9.98883C32.9766 9.81641 32.8472 9.64578 32.7124 9.47922L33.2227 9.01898C33.3835 8.87359 33.442 8.64578 33.3704 8.44102C33.2988 8.23625 33.1113 8.09422 32.8948 8.08078L31.1802 7.97445C31.0337 7.96484 30.8895 8.01641 30.7814 8.11594C30.6732 8.21539 30.6108 8.35477 30.6076 8.50156L30.5733 10.1862C30.569 10.401 30.6926 10.5981 30.8881 10.6874C30.9599 10.7202 31.0362 10.7362 31.1119 10.7362C31.243 10.7359 31.3725 10.6884 31.4735 10.5971Z" fill="white"/>
<path id="Vector_2" d="M8.89911 4.10459C9.66247 4.39436 10.0066 4.73842 10.2965 5.50186C10.3698 5.69521 10.6446 5.69521 10.718 5.50186C11.0079 4.7385 11.352 4.39436 12.1153 4.10459C12.3086 4.03107 12.3086 3.75639 12.1153 3.68303C11.352 3.39311 11.0079 3.04904 10.718 2.28576C10.6447 2.09225 10.3698 2.09225 10.2965 2.28576C10.0066 3.04904 9.66255 3.39311 8.89911 3.68303C8.70583 3.75639 8.70583 4.03107 8.89911 4.10459ZM27.948 4.10459C28.7114 4.39436 29.0555 4.73842 29.3454 5.50186C29.4188 5.69521 29.6935 5.69521 29.7669 5.50186C30.0568 4.7385 30.4008 4.39436 31.1643 4.10459C31.3576 4.03107 31.3576 3.75639 31.1643 3.68303C30.4008 3.39311 30.0568 3.04904 29.7669 2.28576C29.6936 2.09225 29.4189 2.09225 29.3454 2.28576C29.0555 3.04904 28.7115 3.39311 27.948 3.68303C27.7547 3.75639 27.7547 4.03107 27.948 4.10459ZM25.3452 20.8037C25.3452 20.9997 25.1472 21.1354 24.9658 21.0611C24.5817 20.904 23.929 20.6935 23.0729 20.7031C22.2852 20.7119 21.5824 20.9309 21.0086 21.156V21.1187C21.0086 20.9713 21.0819 20.834 21.2043 20.7519C21.8608 20.3111 22.2701 19.5304 22.1784 18.6613C22.07 17.6375 21.2425 16.8051 20.2192 16.6919C18.8763 16.5433 17.7395 17.5908 17.7395 18.9037C17.7395 19.673 18.1301 20.3506 18.7236 20.7503C18.8468 20.8332 18.9219 20.9704 18.9219 21.119C18.3629 20.9075 17.6257 20.7114 16.8815 20.7032C16.0254 20.6936 15.3727 20.9041 14.9884 21.0612C14.8072 21.1354 14.6092 20.9998 14.6092 20.8037V16.8552H12.5258V22.6259C12.5258 23.2012 12.9922 23.6675 13.5675 23.6675H16.482C16.8038 23.6675 17.0615 23.9344 17.0502 24.256L16.528 39.1462C16.5234 39.2827 16.6327 39.3959 16.7694 39.3959H18.3694C18.4985 39.3959 18.6049 39.2941 18.6105 39.1651L18.9208 32.0539C18.9422 31.5583 19.3521 31.1687 19.8482 31.1722C20.3379 31.1758 20.7394 31.5618 20.7622 32.0512L21.0936 39.1687C21.0995 39.2975 21.2058 39.399 21.335 39.399H22.9353C23.0718 39.399 23.1814 39.2856 23.1764 39.1489L22.6418 24.2565C22.6303 23.9348 22.8879 23.6675 23.2101 23.6675H26.3866C26.962 23.6675 27.4282 23.2012 27.4282 22.6259V16.8552H25.345V20.8037H25.3452ZM20.9038 19.3333C20.9038 19.7725 20.4882 20.1297 19.9772 20.1297C19.4661 20.1297 19.0505 19.7725 19.0505 19.3333V19.0494H19.6185V19.3333C19.6185 19.4414 19.7659 19.5615 19.9772 19.5615C20.1886 19.5615 20.3357 19.4414 20.3357 19.3333V19.0494H20.9039V19.3333H20.9038Z" fill="white"/>
</g>
</svg>
