<svg width="32" height="32" viewBox="0 0 32 32" fill="none" xmlns="http://www.w3.org/2000/svg">
<g id="Id" clip-path="url(#clip0_649_235)">
<path id="Vector" d="M30 6H20V8C20.5304 8 21.0391 8.21071 21.4142 8.58579C21.7893 8.96086 22 9.46957 22 10C22 10.5304 21.7893 11.0391 21.4142 11.4142C21.0391 11.7893 20.5304 12 20 12H12C11.4696 12 10.9609 11.7893 10.5858 11.4142C10.2107 11.0391 10 10.5304 10 10C10 9.46957 10.2107 8.96086 10.5858 8.58579C10.9609 8.21071 11.4696 8 12 8V6H2C1.46957 6 0.960859 6.21071 0.585786 6.58579C0.210714 6.96086 0 7.46957 0 8L0 30C0 30.5304 0.210714 31.0391 0.585786 31.4142C0.960859 31.7893 1.46957 32 2 32H30C30.5304 32 31.0391 31.7893 31.4142 31.4142C31.7893 31.0391 32 30.5304 32 30V8C32 7.46957 31.7893 6.96086 31.4142 6.58579C31.0391 6.21071 30.5304 6 30 6ZM15 16H27.166C27.4312 16 27.6856 16.1054 27.8731 16.2929C28.0606 16.4804 28.166 16.7348 28.166 17C28.166 17.2652 28.0606 17.5196 27.8731 17.7071C27.6856 17.8946 27.4312 18 27.166 18H15C14.7348 18 14.4804 17.8946 14.2929 17.7071C14.1054 17.5196 14 17.2652 14 17C14 16.7348 14.1054 16.4804 14.2929 16.2929C14.4804 16.1054 14.7348 16 15 16ZM15 20H27.166C27.4312 20 27.6856 20.1054 27.8731 20.2929C28.0606 20.4804 28.166 20.7348 28.166 21C28.166 21.2652 28.0606 21.5196 27.8731 21.7071C27.6856 21.8946 27.4312 22 27.166 22H15C14.7348 22 14.4804 21.8946 14.2929 21.7071C14.1054 21.5196 14 21.2652 14 21C14 20.7348 14.1054 20.4804 14.2929 20.2929C14.4804 20.1054 14.7348 20 15 20ZM15 24H27.166C27.4312 24 27.6856 24.1054 27.8731 24.2929C28.0606 24.4804 28.166 24.7348 28.166 25C28.166 25.2652 28.0606 25.5196 27.8731 25.7071C27.6856 25.8946 27.4312 26 27.166 26H15C14.7348 26 14.4804 25.8946 14.2929 25.7071C14.1054 25.5196 14 25.2652 14 25C14 24.7348 14.1054 24.4804 14.2929 24.2929C14.4804 24.1054 14.7348 24 15 24ZM12 25.098C12 28.026 4.094 28.026 4.094 25.098C4.094 22.17 5.864 19.798 8.046 19.798C10.23 19.798 12 22.17 12 25.098ZM10.412 16.416C10.412 17.0569 10.1574 17.6715 9.70422 18.1247C9.25104 18.5779 8.6364 18.8325 7.9955 18.8325C7.3546 18.8325 6.73996 18.5779 6.28678 18.1247C5.83359 17.6715 5.579 17.0569 5.579 16.416C5.579 15.7751 5.83359 15.1605 6.28678 14.7073C6.73996 14.2541 7.3546 13.9995 7.9955 13.9995C8.6364 13.9995 9.25104 14.2541 9.70422 14.7073C10.1574 15.1605 10.412 15.7751 10.412 16.416ZM14 2H18V10H14V2Z" fill="white"/>
</g>
<defs>
<clipPath id="clip0_649_235">
<rect width="32" height="32" fill="white"/>
</clipPath>
</defs>
</svg>
