<svg width="32" height="32" viewBox="0 0 32 32" fill="none" xmlns="http://www.w3.org/2000/svg">
<g id="Fruit" clip-path="url(#clip0_649_249)">
<g id="Fruit basket">
<path id="Vector" d="M31.6533 14.7607C31.9552 13.8296 32.0483 12.8435 31.9261 11.8725C31.8039 10.9014 31.4694 9.96909 30.9463 9.14185C30.4233 8.3146 29.7245 7.61267 28.8995 7.08592C28.0746 6.55917 27.1439 6.22051 26.1733 6.094C26.3608 5.49395 26.6928 4.94912 27.14 4.50733C27.2025 4.44535 27.2521 4.37162 27.2859 4.29038C27.3198 4.20914 27.3372 4.122 27.3372 4.034C27.3372 3.94599 27.3198 3.85885 27.2859 3.77761C27.2521 3.69637 27.2025 3.62264 27.14 3.56066C26.2667 2.694 25.08 4.894 24.8067 6.06733C23.8147 6.14575 22.8531 6.44657 21.9933 6.94746C21.1335 7.44834 20.3975 8.13643 19.84 8.96066C19.5147 8.86782 19.1825 8.80094 18.8467 8.76066C19.0292 8.15992 19.3592 7.61444 19.8067 7.174C19.8692 7.11202 19.9187 7.03829 19.9526 6.95705C19.9864 6.87581 20.0039 6.78867 20.0039 6.70066C20.0039 6.61265 19.9864 6.52552 19.9526 6.44428C19.9187 6.36304 19.8692 6.2893 19.8067 6.22733C18.94 5.36066 17.7533 7.56066 17.4733 8.72733C16.029 8.8402 14.6614 9.42328 13.58 10.3873C13.0267 8.874 13.8467 7.054 11.7267 5.174C11.052 4.5801 10.2216 4.19149 9.33333 4.054V3.60733C9.33624 3.18207 9.50625 2.775 9.80667 2.474C9.86915 2.41202 9.91875 2.33829 9.95259 2.25705C9.98644 2.17581 10.0039 2.08867 10.0039 2.00066C10.0039 1.91265 9.98644 1.82552 9.95259 1.74428C9.91875 1.66304 9.86915 1.5893 9.80667 1.52733C8.98667 0.713996 8 2.434 8 3.60733V4.04733C6.99706 4.19839 6.06975 4.66938 5.35619 5.39015C4.64262 6.11093 4.18097 7.04293 4.04 8.04733C3.91333 9.06066 4.30667 10.4273 3.09333 11.594C2.21574 12.4556 1.54749 13.507 1.14 14.6673H0.666667C0.489856 14.6673 0.320286 14.7376 0.195262 14.8626C0.0702379 14.9876 0 15.1572 0 15.334L0 19.334C0 19.4073 0 20.0007 0.84 20.0007L3.44667 28.3273C3.6583 29.0053 4.08093 29.5979 4.65295 30.0188C5.22497 30.4397 5.91647 30.6669 6.62667 30.6673H25.3733C26.0835 30.6669 26.775 30.4397 27.347 30.0188C27.9191 29.5979 28.3417 29.0053 28.5533 28.3273C31.44 19.0873 31.08 20.0007 31.3333 20.0007C31.5101 20.0007 31.6797 19.9304 31.8047 19.8054C31.9298 19.6804 32 19.5108 32 19.334C32 15.0007 32.12 15.0207 31.6533 14.7607ZM1.33333 16.0007H30.6667V18.6673H1.33333V16.0007ZM24.6667 7.38066V8.00066C24.6667 8.17747 24.7369 8.34704 24.8619 8.47207C24.987 8.59709 25.1565 8.66733 25.3333 8.66733C25.5101 8.66733 25.6797 8.59709 25.8047 8.47207C25.9298 8.34704 26 8.17747 26 8.00066V7.38066C26.8089 7.48446 27.5832 7.77236 28.2634 8.22224C28.9436 8.67211 29.5115 9.27198 29.9236 9.97572C30.3357 10.6795 30.5809 11.4683 30.6403 12.2817C30.6998 13.095 30.572 13.9111 30.2667 14.6673H20.4C20.0947 13.9111 19.9669 13.095 20.0263 12.2817C20.0858 11.4683 20.331 10.6795 20.7431 9.97572C21.1551 9.27198 21.7231 8.67211 22.4033 8.22224C23.0835 7.77236 23.8578 7.48446 24.6667 7.38066ZM17.3333 10.0473V10.6673C17.3333 10.8441 17.4036 11.0137 17.5286 11.1387C17.6536 11.2638 17.8232 11.334 18 11.334C18.1768 11.334 18.3464 11.2638 18.4714 11.1387C18.5964 11.0137 18.6667 10.8441 18.6667 10.6673V10.0473C18.8372 10.0659 19.0064 10.0949 19.1733 10.134C18.571 11.5742 18.5047 13.1825 18.9867 14.6673H12.7133C12.8621 13.494 13.3967 12.4034 14.2331 11.5671C15.0694 10.7307 16.16 10.1961 17.3333 10.0473ZM4 12.5473C5.63333 10.9607 5.24 8.94066 5.33333 8.20733C5.41571 7.61275 5.6571 7.05145 6.03204 6.58269C6.40697 6.11394 6.90152 5.75512 7.46347 5.54413C8.02543 5.33314 8.63393 5.27781 9.22472 5.38398C9.81551 5.49015 10.3667 5.75389 10.82 6.14733C12.6333 7.72066 11.4267 9.19399 12.5733 11.434C11.8943 12.3872 11.4781 13.5023 11.3667 14.6673H2.55333C2.89369 13.8736 3.38502 13.1536 4 12.5473ZM27.28 27.934C27.1524 28.3398 26.8987 28.6943 26.5558 28.9461C26.2129 29.1979 25.7987 29.3337 25.3733 29.334H6.62667C6.20044 29.3333 5.78559 29.1964 5.44261 28.9434C5.09962 28.6904 4.84645 28.3344 4.72 27.9273L2.24 20.0007H29.76L27.28 27.934Z" fill="white"/>
<path id="Vector_2" d="M5.33329 23.334H7.99996C8.17677 23.334 8.34634 23.2637 8.47136 23.1387C8.59639 23.0137 8.66663 22.8441 8.66663 22.6673C8.66663 22.4905 8.59639 22.3209 8.47136 22.1959C8.34634 22.0709 8.17677 22.0007 7.99996 22.0007H5.33329C5.15648 22.0007 4.98691 22.0709 4.86189 22.1959C4.73686 22.3209 4.66663 22.4905 4.66663 22.6673C4.66663 22.8441 4.73686 23.0137 4.86189 23.1387C4.98691 23.2637 5.15648 23.334 5.33329 23.334ZM11.3333 23.334V22.0007C11.3333 21.8238 11.2631 21.6543 11.138 21.5292C11.013 21.4042 10.8434 21.334 10.6666 21.334C10.4898 21.334 10.3202 21.4042 10.1952 21.5292C10.0702 21.6543 9.99996 21.8238 9.99996 22.0007V23.334C9.99996 23.5108 10.0702 23.6804 10.1952 23.8054C10.3202 23.9304 10.4898 24.0007 10.6666 24.0007C10.8434 24.0007 11.013 23.9304 11.138 23.8054C11.2631 23.6804 11.3333 23.5108 11.3333 23.334ZM7.33329 26.0007V27.334C7.33329 27.5108 7.40353 27.6804 7.52855 27.8054C7.65358 27.9304 7.82315 28.0007 7.99996 28.0007C8.17677 28.0007 8.34634 27.9304 8.47136 27.8054C8.59639 27.6804 8.66663 27.5108 8.66663 27.334V26.0007C8.66663 25.8238 8.59639 25.6543 8.47136 25.5292C8.34634 25.4042 8.17677 25.334 7.99996 25.334C7.82315 25.334 7.65358 25.4042 7.52855 25.5292C7.40353 25.6543 7.33329 25.8238 7.33329 26.0007ZM13.3333 23.334H18.6666C18.8434 23.334 19.013 23.2637 19.138 23.1387C19.2631 23.0137 19.3333 22.8441 19.3333 22.6673C19.3333 22.4905 19.2631 22.3209 19.138 22.1959C19.013 22.0709 18.8434 22.0007 18.6666 22.0007H13.3333C13.1565 22.0007 12.9869 22.0709 12.8619 22.1959C12.7369 22.3209 12.6666 22.4905 12.6666 22.6673C12.6666 22.8441 12.7369 23.0137 12.8619 23.1387C12.9869 23.2637 13.1565 23.334 13.3333 23.334ZM22 23.334V22.0007C22 21.8238 21.9297 21.6543 21.8047 21.5292C21.6797 21.4042 21.5101 21.334 21.3333 21.334C21.1565 21.334 20.9869 21.4042 20.8619 21.5292C20.7369 21.6543 20.6666 21.8238 20.6666 22.0007V23.334C20.6666 23.5108 20.7369 23.6804 20.8619 23.8054C20.9869 23.9304 21.1565 24.0007 21.3333 24.0007C21.5101 24.0007 21.6797 23.9304 21.8047 23.8054C21.9297 23.6804 22 23.5108 22 23.334ZM24 23.334H26.6666C26.8434 23.334 27.013 23.2637 27.138 23.1387C27.2631 23.0137 27.3333 22.8441 27.3333 22.6673C27.3333 22.4905 27.2631 22.3209 27.138 22.1959C27.013 22.0709 26.8434 22.0007 26.6666 22.0007H24C23.8231 22.0007 23.6536 22.0709 23.5286 22.1959C23.4035 22.3209 23.3333 22.4905 23.3333 22.6673C23.3333 22.8441 23.4035 23.0137 23.5286 23.1387C23.6536 23.2637 23.8231 23.334 24 23.334ZM21.3333 27.334H24C24.1768 27.334 24.3463 27.2637 24.4714 27.1387C24.5964 27.0137 24.6666 26.8441 24.6666 26.6673C24.6666 26.4905 24.5964 26.3209 24.4714 26.1959C24.3463 26.0709 24.1768 26.0007 24 26.0007H21.3333C21.1565 26.0007 20.9869 26.0709 20.8619 26.1959C20.7369 26.3209 20.6666 26.4905 20.6666 26.6673C20.6666 26.8441 20.7369 27.0137 20.8619 27.1387C20.9869 27.2637 21.1565 27.334 21.3333 27.334ZM10.6666 27.334H16C16.1768 27.334 16.3463 27.2637 16.4714 27.1387C16.5964 27.0137 16.6666 26.8441 16.6666 26.6673C16.6666 26.4905 16.5964 26.3209 16.4714 26.1959C16.3463 26.0709 16.1768 26.0007 16 26.0007H10.6666C10.4898 26.0007 10.3202 26.0709 10.1952 26.1959C10.0702 26.3209 9.99996 26.4905 9.99996 26.6673C9.99996 26.8441 10.0702 27.0137 10.1952 27.1387C10.3202 27.2637 10.4898 27.334 10.6666 27.334ZM18 26.0007V27.334C18 27.5108 18.0702 27.6804 18.1952 27.8054C18.3202 27.9304 18.4898 28.0007 18.6666 28.0007C18.8434 28.0007 19.013 27.9304 19.138 27.8054C19.2631 27.6804 19.3333 27.5108 19.3333 27.334V26.0007C19.3333 25.8238 19.2631 25.6543 19.138 25.5292C19.013 25.4042 18.8434 25.334 18.6666 25.334C18.4898 25.334 18.3202 25.4042 18.1952 25.5292C18.0702 25.6543 18 25.8238 18 26.0007Z" fill="white"/>
</g>
</g>
<defs>
<clipPath id="clip0_649_249">
<rect width="32" height="32" fill="white"/>
</clipPath>
</defs>
</svg>
