<svg width="32" height="32" viewBox="0 0 32 32" fill="none" xmlns="http://www.w3.org/2000/svg">
<g id="Drink" clip-path="url(#clip0_649_257)">
<path id="Vector" d="M14.882 13.053L11.672 2.965C11.7678 2.93052 11.8506 2.8674 11.9093 2.78421C11.968 2.70103 11.9997 2.6018 12 2.5V0.5C12 0.367392 11.9473 0.240215 11.8536 0.146447C11.7598 0.0526784 11.6326 0 11.5 0L7.5 0C7.36739 0 7.24022 0.0526784 7.14645 0.146447C7.05268 0.240215 7 0.367392 7 0.5V2.5C7.00027 2.60168 7.03179 2.70082 7.09028 2.78399C7.14877 2.86717 7.23141 2.93036 7.327 2.965L4.117 13.053C4.096 13.121 4.084 13.193 4.068 13.263C4.02538 13.3349 4.00196 13.4165 4 13.5V28.615C3.9997 28.9329 4.06047 29.248 4.179 29.543L4.533 30.429C4.71726 30.8937 5.03724 31.2922 5.45125 31.5724C5.86525 31.8526 6.35408 32.0016 6.854 32H12.146C12.6459 32.0016 13.1347 31.8526 13.5488 31.5724C13.9628 31.2922 14.2827 30.8937 14.467 30.429L14.821 29.543C14.9397 29.248 15.0005 28.933 15 28.615V13.5C14.9982 13.4161 14.9748 13.3342 14.932 13.262C14.916 13.192 14.904 13.122 14.882 13.052V13.053ZM8 1H11V2H8V1ZM8.366 3H10.634L11.271 5H7.729L8.366 3ZM7.41 6H11.588L13.815 13H5.184L7.41 6ZM13.892 29.172L13.538 30.058C13.4273 30.3368 13.2352 30.5757 12.9867 30.7438C12.7383 30.9118 12.4449 31.0011 12.145 31H6.854C6.55405 31.0011 6.26074 30.9118 6.01227 30.7438C5.7638 30.5757 5.5717 30.3368 5.461 30.058L5.107 29.172C5.09264 29.1154 5.08162 29.0579 5.074 29H13.926C13.9184 29.0579 13.9064 29.1154 13.892 29.172ZM14 28H5V14H14V28ZM27.999 17.535C28.0038 17.4665 27.9945 17.3978 27.9716 17.3331C27.9487 17.2684 27.9127 17.2091 27.8659 17.159C27.8191 17.1088 27.7624 17.0688 27.6995 17.0414C27.6365 17.0141 27.5686 17 27.5 17H17.5C17.4314 17 17.3635 17.0141 17.3005 17.0414C17.2376 17.0688 17.1809 17.1088 17.1341 17.159C17.0873 17.2091 17.0513 17.2684 17.0284 17.3331C17.0055 17.3978 16.9962 17.4665 17.001 17.535L17.212 20.488L17.21 20.5C17.21 20.509 17.214 20.515 17.215 20.524L17.935 30.607C17.9634 30.9848 18.1332 31.338 18.4105 31.5962C18.6877 31.8544 19.0521 31.9986 19.431 32H25.569C25.948 31.9985 26.3126 31.8542 26.5898 31.5958C26.8671 31.3374 27.0368 30.984 27.065 30.606L27.785 20.524C27.785 20.516 27.79 20.509 27.79 20.5L27.788 20.488L27.999 17.535ZM26.068 30.535C26.0587 30.6613 26.002 30.7794 25.9092 30.8656C25.8165 30.9518 25.6946 30.9998 25.568 31H19.431C19.3047 30.9996 19.1832 30.9516 19.0907 30.8656C18.9982 30.7796 18.9416 30.6619 18.932 30.536L18.252 21H26.749L26.068 30.535ZM26.82 20H18.18L18.037 18H26.963L26.82 20Z" fill="white"/>
</g>
<defs>
<clipPath id="clip0_649_257">
<rect width="32" height="32" fill="white"/>
</clipPath>
</defs>
</svg>
