<svg width="32" height="32" viewBox="0 0 32 32" fill="none" xmlns="http://www.w3.org/2000/svg">
<g id="8 Date" clip-path="url(#clip0_649_267)">
<g id="Layer 2">
<g id="8">
<path id="Vector" d="M27.6094 31.9998H4.39062C3.22651 31.9986 2.11041 31.5357 1.28726 30.7125C0.464113 29.8894 0.00115824 28.7733 0 27.6091L0 6.90039C0.00115824 5.73628 0.464113 4.62018 1.28726 3.79703C2.11041 2.97388 3.22651 2.51092 4.39062 2.50977H5.01562C5.18139 2.50977 5.34036 2.57561 5.45757 2.69282C5.57478 2.81003 5.64062 2.96901 5.64062 3.13477C5.64062 3.30053 5.57478 3.4595 5.45757 3.57671C5.34036 3.69392 5.18139 3.75977 5.01562 3.75977H4.39062C3.55793 3.76059 2.75958 4.09174 2.17078 4.68055C1.58198 5.26935 1.25083 6.0677 1.25 6.90039V27.6091C1.25083 28.4418 1.58198 29.2402 2.17078 29.829C2.75958 30.4178 3.55793 30.7489 4.39062 30.7498H27.6094C28.4421 30.7489 29.2404 30.4178 29.8292 29.829C30.418 29.2402 30.7492 28.4418 30.75 27.6091V6.90039C30.7492 6.0677 30.418 5.26935 29.8292 4.68055C29.2404 4.09174 28.4421 3.76059 27.6094 3.75977H26.995C26.8292 3.75977 26.6703 3.69392 26.5531 3.57671C26.4358 3.4595 26.37 3.30053 26.37 3.13477C26.37 2.96901 26.4358 2.81003 26.5531 2.69282C26.6703 2.57561 26.8292 2.50977 26.995 2.50977H27.6094C28.7735 2.51092 29.8896 2.97388 30.7127 3.79703C31.5359 4.62018 31.9988 5.73628 32 6.90039V27.6091C31.9988 28.7733 31.5359 29.8894 30.7127 30.7125C29.8896 31.5357 28.7735 31.9986 27.6094 31.9998Z" fill="white"/>
<path id="Vector_2" d="M24.4719 3.75977H7.54063C7.37486 3.75977 7.21589 3.69392 7.09868 3.57671C6.98147 3.4595 6.91563 3.30053 6.91563 3.13477C6.91563 2.96901 6.98147 2.81003 7.09868 2.69282C7.21589 2.57561 7.37486 2.50977 7.54063 2.50977H24.4719C24.6376 2.50977 24.7966 2.57561 24.9138 2.69282C25.031 2.81003 25.0969 2.96901 25.0969 3.13477C25.0969 3.30053 25.031 3.4595 24.9138 3.57671C24.7966 3.69392 24.6376 3.75977 24.4719 3.75977ZM31.375 10.0354H0.625C0.45924 10.0354 0.300268 9.96954 0.183058 9.85233C0.065848 9.73512 0 9.57615 0 9.41039C0 9.24463 0.065848 9.08566 0.183058 8.96845C0.300268 8.85124 0.45924 8.78539 0.625 8.78539H31.375C31.5408 8.78539 31.6997 8.85124 31.8169 8.96845C31.9342 9.08566 32 9.24463 32 9.41039C32 9.57615 31.9342 9.73512 31.8169 9.85233C31.6997 9.96954 31.5408 10.0354 31.375 10.0354Z" fill="white"/>
<path id="Vector_3" d="M6.28438 6.27688H6.27376C5.77508 6.27621 5.29703 6.07778 4.94447 5.7251C4.59191 5.37242 4.39363 4.8943 4.39313 4.39563V1.88125C4.39363 1.38257 4.59191 0.904451 4.94447 0.551774C5.29703 0.199097 5.77508 0.000661789 6.27376 0L6.28438 0C6.78317 0.000496387 7.26139 0.198858 7.61408 0.551554C7.96678 0.904249 8.16514 1.38246 8.16563 1.88125V4.39563C8.16497 4.89436 7.96656 5.37248 7.6139 5.72514C7.26124 6.0778 6.78312 6.27621 6.28438 6.27688ZM6.27376 1.25C6.1065 1.25033 5.9462 1.31696 5.82799 1.43529C5.70977 1.55362 5.6433 1.71399 5.64313 1.88125V4.39563C5.6433 4.56288 5.70977 4.72325 5.82799 4.84158C5.9462 4.95991 6.1065 5.02654 6.27376 5.02688H6.28438C6.45175 5.02671 6.61222 4.96015 6.73056 4.8418C6.84891 4.72346 6.91547 4.56299 6.91564 4.39563V1.88125C6.91547 1.71388 6.84891 1.55342 6.73056 1.43507C6.61222 1.31673 6.45175 1.25017 6.28438 1.25H6.27376ZM25.7381 6.27688H25.7281C25.2294 6.27621 24.7513 6.0778 24.3986 5.72514C24.046 5.37248 23.8475 4.89436 23.8469 4.39563V1.88125C23.8474 1.38246 24.0457 0.904249 24.3984 0.551554C24.7511 0.198858 25.2293 0.000496387 25.7281 0L25.7381 0C26.2369 0.000496387 26.7151 0.198858 27.0678 0.551554C27.4205 0.904249 27.6189 1.38246 27.6194 1.88125V4.39563C27.6187 4.89436 27.4203 5.37248 27.0676 5.72514C26.715 6.0778 26.2369 6.27621 25.7381 6.27688ZM25.7281 1.25C25.5608 1.25017 25.4003 1.31673 25.282 1.43507C25.1636 1.55342 25.097 1.71388 25.0969 1.88125V4.39563C25.097 4.56299 25.1636 4.72346 25.282 4.8418C25.4003 4.96015 25.5608 5.02671 25.7281 5.02688H25.7381C25.9055 5.02671 26.066 4.96015 26.1843 4.8418C26.3027 4.72346 26.3692 4.56299 26.3694 4.39563V1.88125C26.3692 1.71388 26.3027 1.55342 26.1843 1.43507C26.066 1.31673 25.9055 1.25017 25.7381 1.25H25.7281ZM28.865 24.4694H3.13501C2.96925 24.4694 2.81028 24.4035 2.69307 24.2863C2.57586 24.1691 2.51001 24.0101 2.51001 23.8444V11.9206C2.51001 11.7549 2.57586 11.5959 2.69307 11.4787C2.81028 11.3615 2.96925 11.2956 3.13501 11.2956H28.865C29.0308 11.2956 29.1897 11.3615 29.307 11.4787C29.4242 11.5959 29.49 11.7549 29.49 11.9206V23.8444C29.49 24.0101 29.4242 24.1691 29.307 24.2863C29.1897 24.4035 29.0308 24.4694 28.865 24.4694ZM3.76001 23.2194H28.24V12.5456H3.76001V23.2194ZM25.7269 26.9794H6.27313C6.10737 26.9794 5.9484 26.9135 5.83119 26.7963C5.71398 26.6791 5.64813 26.5201 5.64813 26.3544C5.64813 26.1886 5.71398 26.0296 5.83119 25.9124C5.9484 25.7952 6.10737 25.7294 6.27313 25.7294H25.7269C25.8926 25.7294 26.0516 25.7952 26.1688 25.9124C26.286 26.0296 26.3519 26.1886 26.3519 26.3544C26.3519 26.5201 26.286 26.6791 26.1688 26.7963C26.0516 26.9135 25.8926 26.9794 25.7269 26.9794ZM25.7269 29.49H6.27313C6.10737 29.49 5.9484 29.4242 5.83119 29.3069C5.71398 29.1897 5.64813 29.0308 5.64813 28.865C5.64813 28.6992 5.71398 28.5403 5.83119 28.4231C5.9484 28.3058 6.10737 28.24 6.27313 28.24H25.7269C25.8926 28.24 26.0516 28.3058 26.1688 28.4231C26.286 28.5403 26.3519 28.6992 26.3519 28.865C26.3519 29.0308 26.286 29.1897 26.1688 29.3069C26.0516 29.4242 25.8926 29.49 25.7269 29.49Z" fill="white"/>
<path id="Vector_4" d="M15.9999 21.1934C15.569 21.1936 15.1477 21.0659 14.7893 20.8266C14.4309 20.5872 14.1516 20.247 13.9866 19.8489C13.8216 19.4508 13.7783 19.0127 13.8623 18.59C13.9463 18.1673 14.1538 17.7791 14.4585 17.4743C14.7632 17.1695 15.1514 16.962 15.574 16.8778C15.9967 16.7937 16.4348 16.8368 16.8329 17.0017C17.2311 17.1666 17.5714 17.4459 17.8108 17.8042C18.0503 18.1625 18.1781 18.5837 18.1781 19.0147C18.1776 19.5923 17.9479 20.1461 17.5396 20.5545C17.1312 20.963 16.5775 21.1928 15.9999 21.1934ZM15.9999 18.0866C15.8162 18.0864 15.6365 18.1408 15.4837 18.2428C15.3309 18.3448 15.2117 18.4899 15.1414 18.6596C15.071 18.8293 15.0526 19.0161 15.0884 19.1963C15.1242 19.3766 15.2127 19.5421 15.3426 19.672C15.4725 19.802 15.6381 19.8904 15.8183 19.9262C15.9985 19.9621 16.1853 19.9436 16.355 19.8732C16.5247 19.8029 16.6698 19.6837 16.7718 19.5309C16.8738 19.3781 16.9282 19.1984 16.9281 19.0147C16.9279 18.7686 16.8301 18.5326 16.656 18.3586C16.482 18.1846 16.246 18.0867 15.9999 18.0866Z" fill="white"/>
<path id="Vector_5" d="M15.9999 18.0873C15.6523 18.0873 15.3125 17.9842 15.0235 17.7911C14.7345 17.598 14.5092 17.3235 14.3762 17.0023C14.2432 16.6812 14.2084 16.3278 14.2762 15.9869C14.344 15.646 14.5114 15.3328 14.7572 15.087C15.003 14.8412 15.3161 14.6738 15.6571 14.606C15.998 14.5382 16.3514 14.573 16.6725 14.706C16.9936 14.8391 17.2681 15.0643 17.4612 15.3534C17.6544 15.6424 17.7574 15.9822 17.7574 16.3298C17.7569 16.7957 17.5716 17.2425 17.2421 17.572C16.9126 17.9014 16.4659 18.0868 15.9999 18.0873ZM15.9999 15.8223C15.8996 15.8223 15.8014 15.852 15.718 15.9078C15.6345 15.9636 15.5695 16.0428 15.5311 16.1356C15.4927 16.2283 15.4826 16.3303 15.5022 16.4288C15.5218 16.5272 15.5701 16.6176 15.6411 16.6886C15.7121 16.7596 15.8025 16.8079 15.9009 16.8275C15.9994 16.8471 16.1014 16.837 16.1941 16.7986C16.2869 16.7602 16.3661 16.6952 16.4219 16.6117C16.4777 16.5283 16.5074 16.4301 16.5074 16.3298C16.5073 16.1952 16.4537 16.0662 16.3586 15.9711C16.2635 15.876 16.1345 15.8224 15.9999 15.8223Z" fill="white"/>
</g>
</g>
</g>
<defs>
<clipPath id="clip0_649_267">
<rect width="32" height="32" fill="white"/>
</clipPath>
</defs>
</svg>
