<svg width="50" height="50" viewBox="0 0 50 50" fill="none" xmlns="http://www.w3.org/2000/svg">
<g id="eos-icons:loading">
<path id="Vector" opacity="0.5" d="M25 4.16667C20.8795 4.16667 16.8516 5.38853 13.4256 7.67772C9.99957 9.96692 7.3293 13.2206 5.75248 17.0274C4.17565 20.8342 3.76308 25.0231 4.56694 29.0644C5.3708 33.1057 7.35498 36.8178 10.2686 39.7314C13.1822 42.645 16.8943 44.6292 20.9356 45.433C24.9769 46.2369 29.1657 45.8243 32.9725 44.2475C36.7793 42.6707 40.0331 40.0004 42.3223 36.5744C44.6115 33.1484 45.8333 29.1204 45.8333 25C45.8333 22.2641 45.2944 19.555 44.2475 17.0274C43.2005 14.4998 41.6659 12.2032 39.7314 10.2686C37.7968 8.33406 35.5002 6.79949 32.9725 5.75251C30.4449 4.70554 27.7358 4.16667 25 4.16667ZM25 41.6667C21.7036 41.6667 18.4813 40.6892 15.7405 38.8578C12.9996 37.0265 10.8634 34.4235 9.60198 31.3781C8.34052 28.3326 8.01046 24.9815 8.65355 21.7485C9.29664 18.5155 10.884 15.5458 13.2149 13.2149C15.5457 10.884 18.5154 9.29667 21.7485 8.65358C24.9815 8.0105 28.3326 8.34055 31.378 9.60201C34.4235 10.8635 37.0264 12.9997 38.8578 15.7405C40.6892 18.4813 41.6666 21.7036 41.6666 25C41.6666 29.4203 39.9107 33.6595 36.7851 36.7851C33.6595 39.9107 29.4202 41.6667 25 41.6667Z" fill="white"/>
<path id="Vector_2" d="M41.6667 25H45.8333C45.8333 22.2641 45.2945 19.5551 44.2475 17.0274C43.2005 14.4998 41.6659 12.2032 39.7314 10.2686C37.7968 8.33406 35.5002 6.79949 32.9726 5.75252C30.445 4.70554 27.7359 4.16667 25 4.16667V8.33334C29.4203 8.33334 33.6595 10.0893 36.7851 13.2149C39.9107 16.3405 41.6667 20.5797 41.6667 25Z" fill="white"/>
</g>
</svg>
