<svg width="30" height="50" viewBox="0 0 30 50" fill="none" xmlns="http://www.w3.org/2000/svg">
<g id="Group 44">
<path id="Vector" d="M24.0808 16.495C19.3213 9.83799 17.2173 4.17627 16.0123 0.798199C15.6308 -0.266066 14.3654 -0.266066 13.9877 0.798199C12.7827 4.17627 10.6787 9.83799 5.91916 16.495C2.93881 20.6659 0 26.7714 0 32.7865C0 43.05 6.49333 50 15 50C23.5067 50 30 43.0457 30 32.7865C30 26.5345 27.0612 20.6659 24.0808 16.495Z" fill="#E11B22"/>
<path id="Vector_2" d="M19.1482 31.8257C21.5469 26.6207 21.2069 21.5278 23.1031 22.4455C25.6793 23.6994 28.5312 30.141 27.4622 35.9794C26.6992 40.1416 24.2364 42.6623 21.0974 41.4601C18.5627 40.4906 16.9876 36.5137 19.1482 31.8257Z" fill="white" fill-opacity="0.4"/>
</g>
</svg>
