<svg width="126" height="126" viewBox="0 0 126 126" fill="none" xmlns="http://www.w3.org/2000/svg">
<g id="Group">
<path id="Vector" d="M88 50.6392C88 57.2844 85.3661 63.6574 80.6777 68.3562C75.9893 73.0551 69.6304 75.6949 63 75.6949C56.3696 75.6949 50.0107 73.0551 45.3223 68.3562C40.6339 63.6574 38 57.2844 38 50.6392C38 43.994 40.6339 37.621 45.3223 32.9221C50.0107 28.2233 56.3696 25.5835 63 25.5835C69.6304 25.5835 75.9893 28.2233 80.6777 32.9221C85.3661 37.621 88 43.994 88 50.6392Z" fill="#444444"/>
<path id="Vector_2" fill-rule="evenodd" clip-rule="evenodd" d="M60.45 125.756C27.1156 124.416 0.5 96.9045 0.5 63.167C0.5 28.5714 28.4813 0.527832 63 0.527832C97.5187 0.527832 125.5 28.5714 125.5 63.167C125.5 97.7626 97.5187 125.806 63 125.806C62.7146 125.808 62.4292 125.808 62.1437 125.806C61.5781 125.806 61.0125 125.787 60.45 125.756ZM22.8938 102.692C22.4265 101.347 22.2674 99.9142 22.4284 98.4992C22.5894 97.0843 23.0663 95.7238 23.8237 94.5188C24.5811 93.3138 25.5996 92.2952 26.8035 91.5387C28.0074 90.7822 29.3659 90.3072 30.7781 90.1489C55.1406 87.446 71.0094 87.6903 95.2531 90.2052C96.6672 90.3528 98.029 90.8219 99.2349 91.5767C100.441 92.3315 101.459 93.3521 102.212 94.5609C102.965 95.7696 103.432 97.1346 103.579 98.5519C103.726 99.9691 103.548 101.401 103.059 102.739C113.45 92.2031 119.269 77.981 119.25 63.167C119.25 32.0322 94.0656 6.79175 63 6.79175C31.9344 6.79175 6.75 32.0322 6.75 63.167C6.75 78.5637 12.9094 92.5197 22.8938 102.692Z" fill="#444444"/>
</g>
</svg>
