<svg width="50" height="50" viewBox="0 0 50 50" fill="none" xmlns="http://www.w3.org/2000/svg">
<g id="ion:location">
<path id="Vector" d="M25 21.875C26.7259 21.875 28.125 20.4759 28.125 18.75C28.125 17.0241 26.7259 15.625 25 15.625C23.2741 15.625 21.875 17.0241 21.875 18.75C21.875 20.4759 23.2741 21.875 25 21.875Z" fill="#E11B22"/>
<path id="Vector_2" d="M25 3.125C16.3848 3.125 9.375 9.8291 9.375 18.0664C9.375 21.9893 11.1631 27.2061 14.6895 33.5723C17.5215 38.6836 20.7979 43.3057 22.502 45.6055C22.7899 45.9984 23.1664 46.318 23.6009 46.5383C24.0354 46.7586 24.5158 46.8734 25.0029 46.8734C25.4901 46.8734 25.9704 46.7586 26.4049 46.5383C26.8395 46.318 27.216 45.9984 27.5039 45.6055C29.2051 43.3057 32.4844 38.6836 35.3164 33.5723C38.8369 27.208 40.625 21.9912 40.625 18.0664C40.625 9.8291 33.6152 3.125 25 3.125ZM25 25C23.7639 25 22.5555 24.6334 21.5277 23.9467C20.4999 23.2599 19.6988 22.2838 19.2258 21.1418C18.7527 19.9997 18.6289 18.7431 18.8701 17.5307C19.1112 16.3183 19.7065 15.2047 20.5806 14.3306C21.4547 13.4565 22.5683 12.8612 23.7807 12.6201C24.9931 12.3789 26.2497 12.5027 27.3918 12.9758C28.5338 13.4488 29.5099 14.2499 30.1967 15.2777C30.8834 16.3055 31.25 17.5139 31.25 18.75C31.2482 20.407 30.5891 21.9957 29.4174 23.1674C28.2457 24.3391 26.657 24.9982 25 25Z" fill="#E11B22"/>
</g>
</svg>
